<svg version="1.1" xmlns="http://www.w3.org/2000/svg" style="display: block;" viewBox="0 0 2026 2048" width="1024" height="1035" preserveAspectRatio="none">
<defs>
	<linearGradient id="Gradient1" gradientUnits="userSpaceOnUse" x1="1407.88" y1="1207.31" x2="1423.43" y2="1234.35">
		<stop class="stop0" offset="0" stop-opacity="1" stop-color="rgb(184,117,49)"/>
		<stop class="stop1" offset="1" stop-opacity="1" stop-color="rgb(181,101,63)"/>
	</linearGradient>
	<linearGradient id="Gradient2" gradientUnits="userSpaceOnUse" x1="629.974" y1="1210.25" x2="614.747" y2="1234.28">
		<stop class="stop0" offset="0" stop-opacity="1" stop-color="rgb(185,116,53)"/>
		<stop class="stop1" offset="1" stop-opacity="1" stop-color="rgb(180,99,62)"/>
	</linearGradient>
	<linearGradient id="Gradient3" gradientUnits="userSpaceOnUse" x1="421.586" y1="1127.74" x2="1583.33" y2="172.385">
		<stop class="stop0" offset="0" stop-opacity="1" stop-color="rgb(169,136,208)"/>
		<stop class="stop1" offset="1" stop-opacity="1" stop-color="rgb(159,186,235)"/>
	</linearGradient>
	<linearGradient id="Gradient4" gradientUnits="userSpaceOnUse" x1="1017.56" y1="1457.01" x2="1018.46" y2="444.98">
		<stop class="stop0" offset="0" stop-opacity="1" stop-color="rgb(237,149,102)"/>
		<stop class="stop1" offset="1" stop-opacity="1" stop-color="rgb(253,228,144)"/>
	</linearGradient>
	<linearGradient id="Gradient5" gradientUnits="userSpaceOnUse" x1="955.287" y1="434.847" x2="1258.24" y2="1621.83">
		<stop class="stop0" offset="0" stop-opacity="1" stop-color="rgb(167,100,63)"/>
		<stop class="stop1" offset="1" stop-opacity="1" stop-color="rgb(203,122,83)"/>
	</linearGradient>
	<linearGradient id="Gradient6" gradientUnits="userSpaceOnUse" x1="192.615" y1="1581.02" x2="1793.96" y2="362.09">
		<stop class="stop0" offset="0" stop-opacity="1" stop-color="rgb(132,70,180)"/>
		<stop class="stop1" offset="1" stop-opacity="1" stop-color="rgb(120,162,231)"/>
	</linearGradient>
</defs>
<path transform="translate(0,0)" fill="url(#Gradient6)" d="M 129.631 1406.81 C 115.376 1366.58 116.033 1319.08 116.02 1277.02 L 115.992 1191.84 L 116.018 923.097 L 115.98 701.43 C 115.971 665.178 114.343 609.859 117.558 574.806 C 120.711 538.759 130.33 503.575 145.956 470.939 C 181.359 396.706 244.775 339.558 322.279 312.044 C 348.446 302.706 375.815 297.166 403.553 295.592 C 428.672 294.133 460.049 294.923 485.552 294.931 L 623.579 294.97 L 1049.94 294.99 L 1424.48 294.986 L 1543.86 294.975 C 1567.56 294.967 1595.9 294.28 1619.28 296.022 C 1655.95 298.868 1691.76 308.524 1724.89 324.497 C 1798.94 359.775 1855.81 423.198 1882.83 500.641 C 1891.99 526.434 1897.74 553.314 1899.93 580.598 C 1901.32 599.839 1900.92 620.372 1900.92 639.726 L 1900.88 725.041 L 1900.86 992.392 L 1900.89 1221.17 C 1900.9 1257.91 1902.64 1315.8 1899.3 1349.96 C 1895.94 1385 1886.39 1419.18 1871.09 1450.89 C 1835.26 1525.52 1771.21 1582.83 1693.07 1610.19 C 1669.56 1618.36 1645.09 1623.45 1620.27 1625.34 C 1591.09 1627.67 1545.91 1626.33 1515.17 1626.34 L 1325.62 1626.35 L 732.665 1626.19 C 707.751 1648.38 682.385 1672.78 657.844 1695.55 L 524.912 1818.66 C 514.591 1828.25 468.916 1873.21 461.16 1877.28 C 440.949 1901.07 406.641 1906.12 389.341 1876.75 C 385.68 1870.67 383.833 1863.67 384.016 1856.57 C 384.211 1844.36 390.151 1823.67 393.319 1811 L 408.423 1750.83 C 410.705 1739.01 415.406 1722.09 418.375 1710.13 C 425.397 1682.24 432.277 1654.31 439.014 1626.34 C 422.49 1626.23 406.538 1626.31 390.139 1624.63 C 337.015 1619.18 287.319 1599.76 244.23 1568.25 C 236.582 1562.66 223.607 1553.05 217.831 1545.99 C 208.833 1539.94 186.515 1514.8 180.25 1505.12 C 175.849 1501.93 161.978 1479.31 158.655 1473.29 C 147.182 1455.91 135.224 1427.07 129.631 1406.81 z"/>
<path transform="translate(0,0)" fill="rgb(131,71,174)" d="M 408.423 1750.83 C 409.117 1755.48 408.986 1759.14 408.889 1763.8 C 410.968 1764.48 409.993 1764.23 411.799 1764.61 C 411.807 1780.75 397.917 1786.79 398.594 1802.47 C 398.635 1803.44 404.206 1810.36 405.514 1811.96 C 405.63 1819.13 404.51 1819.33 411.409 1822.53 C 419.043 1832.89 408.812 1848.49 412.917 1855.7 C 420.121 1855.73 420.622 1854.72 425.255 1861.18 C 430.969 1869.14 439.494 1879.87 423.765 1885.21 C 428.973 1889.56 434.385 1883.42 439.99 1883.71 L 440.661 1884.52 C 442.375 1886.55 442.977 1887.78 445.497 1888.38 C 450.327 1884.85 456.649 1878.23 461.16 1877.28 C 440.949 1901.07 406.641 1906.12 389.341 1876.75 C 385.68 1870.67 383.833 1863.67 384.016 1856.57 C 384.211 1844.36 390.151 1823.67 393.319 1811 L 408.423 1750.83 z"/>
<path transform="translate(0,0)" fill="rgb(131,71,174)" d="M 129.631 1406.81 C 138.43 1412.78 139.007 1431.92 143.816 1440.72 C 147.014 1446.57 153.554 1448.72 157.087 1455.03 C 155.788 1456.34 156.48 1455.76 154.029 1456.07 C 154.594 1461.58 158.518 1464.4 158.655 1473.29 C 147.182 1455.91 135.224 1427.07 129.631 1406.81 z"/>
<path transform="translate(0,0)" fill="rgb(131,71,174)" d="M 180.25 1505.12 C 183.57 1506.61 182.765 1506.34 185.479 1508.55 C 190.969 1513.04 204.075 1517.82 206.644 1525.21 C 204.248 1528.19 204.431 1526.82 204.216 1529.77 C 208.07 1535.55 214.497 1538.58 217.831 1545.99 C 208.833 1539.94 186.515 1514.8 180.25 1505.12 z"/>
<path transform="translate(0,0)" fill="url(#Gradient5)" d="M 155.385 807.947 L 155.286 676.742 C 155.224 646.292 153.969 605.866 156.913 576.339 C 163.42 514.607 190.875 456.965 234.706 413.01 C 275.86 371.603 329.461 344.839 387.288 336.824 C 406.117 334.394 426.576 334.512 445.695 334.401 L 1247.23 334.346 L 1489.31 334.296 L 1566.38 334.209 C 1590.86 334.225 1614.3 333.686 1638.54 338.016 C 1692.51 347.4 1742.24 373.3 1780.87 412.144 C 1841.57 472.272 1861.51 540.439 1861.81 623.517 L 1862.01 814.179 C 1855.15 821.904 1834.88 837.06 1826.26 843.515 C 1756.13 895.498 1679.94 938.762 1599.36 972.354 C 1584.66 978.488 1563.98 987.501 1549.04 991.687 C 1547.89 1005.37 1546.53 1018.6 1544.89 1032.23 C 1542.66 1050.84 1535.52 1066.75 1541.51 1084.9 C 1560.77 1068.38 1576.72 1060.16 1602.18 1070.53 C 1628.12 1081.24 1632.95 1102.35 1634.89 1127.27 C 1650.25 1120.65 1664.46 1116.6 1680.71 1123.39 C 1711.76 1136.37 1715.42 1162.21 1713.88 1190.9 C 1722.41 1188.96 1732.79 1186.66 1741.27 1189.31 C 1806.13 1209.61 1763.83 1287.33 1743.06 1328.68 C 1704.17 1406.12 1657.23 1524.4 1563.19 1546.48 C 1535.25 1553.04 1493.09 1547.39 1465.99 1539.34 C 1427 1526.23 1384.79 1513.38 1350.36 1490.43 C 1326.11 1474.2 1306.31 1455.29 1291.07 1430.47 C 1286.07 1422.39 1278.83 1408.69 1273.31 1402.08 C 1171.5 1454.63 1072.38 1477.82 957.121 1464.12 C 884.813 1455.52 829.158 1436.53 764.795 1402.57 C 720.819 1486.68 671.027 1507.34 584.37 1536.68 C 541.241 1551.28 484.728 1556.35 443.406 1534.34 C 418.915 1520.8 393.445 1496.34 377.212 1473.48 C 341.358 1423 313.865 1364.64 287.584 1308.64 C 274.131 1279.98 253.314 1239.71 270.987 1208.96 C 276.829 1198.7 286.517 1191.19 297.909 1188.09 C 307.458 1185.56 316.278 1186.55 325.952 1187.46 C 325.704 1177.67 324.934 1168.34 327.975 1158.93 C 339.942 1121.88 371.17 1113.03 404.724 1125.98 C 405.01 1116.02 405.552 1107.19 409.992 1098.14 C 426.597 1064.29 464.229 1054.25 492.874 1079.71 C 494.734 1081.12 494.568 1080.95 496.655 1082.01 L 498.688 1081 C 501.157 1075.65 497.842 1063.01 496.622 1056.7 C 491.753 1032.2 489.68 1016.58 487.914 991.756 C 450.215 976.477 420.394 965.579 382.515 948.055 C 301.786 910.026 225.596 863.027 155.385 807.947 z"/>
<path transform="translate(0,0)" fill="url(#Gradient4)" d="M 505.611 1059.27 C 504.925 1047.36 501.439 1034.82 499.987 1022.89 C 498.043 1006.92 496.673 990.674 496.287 974.583 C 492.94 847.065 537.488 722.92 621.148 626.624 C 711.23 520.898 839.761 455.467 978.252 444.833 C 1116.34 434.151 1253.03 478.664 1358.35 568.612 C 1463.7 660.195 1529.48 784.962 1539.48 924.881 C 1543.06 975.029 1539.5 1010.94 1531.12 1060.13 C 1488.88 1020.71 1451.93 1054.07 1437.41 1096.15 C 1435.53 1101.6 1431.69 1108.25 1430.24 1113.69 C 1426.99 1120.54 1419.82 1122.55 1412.17 1124.72 C 1394.66 1129.67 1380.39 1138.67 1364.41 1144.97 C 1339.9 1152.28 1285.07 1170.39 1275.6 1194.41 C 1253.71 1249.92 1244.11 1339.26 1269.83 1393.41 C 1151.32 1459.64 1011.47 1476.45 880.637 1440.21 C 858.983 1434.32 837.262 1425.87 816.509 1417.55 C 808.906 1414.5 774.85 1396.78 771.026 1395.98 C 769.057 1393.1 774.718 1380.79 776.087 1376.82 C 778.826 1368.93 781.048 1360.87 782.739 1352.69 C 790.626 1315 780.873 1234.01 765.679 1198.32 C 751.936 1166.04 708.602 1157.81 679.247 1147.2 C 670.944 1144.19 663.092 1139.36 655.113 1136.4 C 648.209 1131.41 622.621 1123.08 613.165 1119.77 C 604.177 1095.23 590.04 1055.14 563.796 1045.7 C 529.181 1033.36 510.607 1062.62 506.794 1061.36 L 505.611 1059.27 z"/>
<path transform="translate(0,0)" fill="rgb(185,89,96)" d="M 799.726 1220.37 C 816.386 1205.56 823.478 1200.16 838.66 1183.71 C 872.098 1147.5 914.642 1077.97 970.964 1082.9 C 990.84 1084.64 1002.55 1091.08 1018.87 1101.47 C 1042.19 1087.09 1061.49 1078.62 1089.85 1085.52 C 1135.14 1096.54 1174.43 1155.69 1203.92 1188.93 C 1213.04 1199.21 1231.84 1214.66 1237.64 1221.94 C 1232.61 1231.48 1214.8 1248.06 1206.89 1256.94 C 1193.61 1271.84 1179.59 1290.15 1164.75 1303.17 C 1159.24 1313.44 1142.93 1325.88 1133.52 1333.2 C 1093.38 1364.41 1047.38 1379.11 996.629 1372.37 C 952.795 1366.54 898.772 1337.84 871.974 1302.33 C 856.493 1287.03 843.444 1271.58 829.566 1254.86 C 822.431 1246.26 805.586 1230.52 800.737 1222.11 L 799.726 1220.37 z"/>
<path transform="translate(0,0)" fill="rgb(211,134,91)" d="M 871.974 1302.33 C 884.4 1308.73 895.096 1318.05 908.422 1324.45 C 966.355 1352.37 1032.58 1357.83 1094.3 1339.79 C 1111.76 1334.59 1128.19 1327.42 1143.63 1317.7 C 1149.93 1313.73 1159.16 1306.31 1164.75 1303.17 C 1159.24 1313.44 1142.93 1325.88 1133.52 1333.2 C 1093.38 1364.41 1047.38 1379.11 996.629 1372.37 C 952.795 1366.54 898.772 1337.84 871.974 1302.33 z"/>
<path transform="translate(0,0)" fill="rgb(224,124,144)" d="M 957.251 1091.13 C 987.307 1089.21 995.835 1100.43 1019.26 1108.54 C 1022.7 1109.73 1047.68 1093.29 1061.49 1091.95 C 1123.08 1085.97 1160.68 1154.56 1196.77 1193.63 C 1207.29 1205.34 1215.69 1212.97 1228.27 1222.58 C 1175.87 1273.21 1168.46 1307.96 1090.63 1332.11 C 1019.92 1353.64 928.378 1339.34 872.063 1290.08 C 862.467 1281.68 853.751 1269.85 845.297 1260.22 C 834.099 1247.45 822.927 1234.64 811.701 1221.89 C 822.694 1212.09 829.61 1205.79 839.657 1194.96 C 873.045 1159 906.859 1102.15 957.251 1091.13 z"/>
<path transform="translate(0,0)" fill="rgb(108,34,53)" d="M 936.731 1197.43 C 978.524 1177.55 1011.7 1161.91 1058.34 1178.14 C 1072.67 1183.13 1089.18 1193.48 1100.33 1197.48 C 1137.39 1215.23 1167.4 1223.21 1208.1 1226.73 C 1183.47 1230.59 1164.87 1231.36 1139.92 1228.43 C 1127.25 1226.93 1103.33 1222.24 1091.62 1223.15 C 1061.55 1225.5 1042.65 1237.07 1010.46 1235.23 C 984.598 1233.75 966.427 1224.8 942.452 1223.04 C 931.821 1222.26 908.025 1226.87 896.584 1228.44 C 870.159 1232.06 852 1230.77 826.122 1226.61 C 866.139 1225.14 901.222 1216.27 936.731 1197.43 z"/>
<path transform="translate(0,0)" fill="rgb(185,89,96)" d="M 936.731 1197.43 C 978.524 1177.55 1011.7 1161.91 1058.34 1178.14 C 1072.67 1183.13 1089.18 1193.48 1100.33 1197.48 C 1040.39 1215.56 996.54 1213.52 936.731 1197.43 z"/>
<path transform="translate(0,0)" fill="rgb(247,178,195)" d="M 1074.6 1260.22 C 1110.63 1257.13 1109.74 1282.69 1074.41 1288.96 C 1032.02 1290.37 1038.77 1267.01 1074.6 1260.22 z"/>
<path transform="translate(0,0)" fill="rgb(247,178,195)" d="M 1065.41 1107.3 C 1079.65 1106.44 1095.25 1110.96 1106.98 1119.05 C 1111.48 1122.15 1119.35 1128.02 1115.22 1133.79 C 1111.65 1134.98 1111.06 1134.62 1107.45 1133.8 C 1101.35 1130.72 1095.52 1127.85 1089.19 1125.24 C 1082.14 1122.34 1051.1 1123.69 1052.83 1113.12 C 1056.2 1108.55 1059.87 1108.43 1065.41 1107.3 z"/>
<path transform="translate(0,0)" fill="rgb(247,178,195)" d="M 1119.37 1257.57 C 1123.52 1256.08 1128.09 1258.26 1129.54 1262.42 C 1130.99 1266.59 1128.77 1271.14 1124.59 1272.55 C 1120.47 1273.95 1115.99 1271.76 1114.56 1267.65 C 1113.13 1263.54 1115.27 1259.04 1119.37 1257.57 z"/>
<path transform="translate(0,0)" fill="rgb(243,189,106)" d="M 1080.33 938.776 C 1083.39 935.191 1088.46 918.236 1090.95 912.593 C 1119.12 848.648 1182.73 810.145 1252.63 824.001 C 1295.36 832.471 1339.51 860.831 1363.87 896.966 C 1367.18 901.883 1371.41 908.57 1370.25 914.579 C 1397.84 941.566 1445.76 940.968 1473.16 913.667 C 1463.72 929.416 1456.72 936.788 1440.65 946.097 C 1441.89 947.625 1444.98 951.244 1445.77 952.75 L 1445.23 954.669 C 1451.09 953.908 1460.12 950.832 1465.82 948.665 C 1458.63 955.744 1454.07 959.925 1445.18 964.842 C 1423.37 978.712 1399.32 978.129 1374.78 974.292 C 1398.12 988.188 1419.19 992.299 1446.29 987.496 C 1412.5 1010.62 1379.86 1009.73 1342.67 995.545 C 1361.9 1017.32 1378.8 1021.77 1407.31 1025.57 C 1368.46 1039.39 1339.63 1034.22 1305.56 1012.16 C 1319.01 1035.95 1325.64 1042.58 1350.01 1054.93 C 1319.84 1056.01 1298.59 1051.27 1275.63 1030.02 C 1273.33 1027.88 1271.08 1025.68 1268.9 1023.42 C 1275.03 1046.62 1277.56 1056.33 1294.82 1073.68 C 1265.97 1066.58 1249.1 1053.61 1232.91 1028.45 C 1228.54 1047.21 1227.91 1061.65 1235.5 1079.78 C 1212.91 1066.49 1204.97 1053.72 1198.2 1028.33 L 1198.06 1027.8 C 1187.53 1042.34 1180.26 1053.47 1171.44 1069.17 C 1163.88 1049.22 1166.82 1045.26 1164.13 1026.66 C 1163.88 1031.27 1163.55 1035.88 1163.13 1040.48 L 1162.82 1031.18 C 1156.59 1028.6 1155 1031.74 1150.52 1035.99 L 1149.78 1034.26 C 1138.66 1043.19 1133.68 1045.88 1120.3 1050.41 C 1131.48 1032.37 1133.55 1023.12 1135.3 1001.86 C 1118.6 1016.73 1108.28 1021.5 1085.75 1022.16 C 1102.55 1009.99 1107.6 997.785 1112.52 978.483 C 1094.06 989.209 1086.35 992.324 1065.18 992.951 C 1077.37 985.396 1093.25 971.361 1091.32 955.409 C 1087.63 949.652 1082.97 944.982 1080.33 938.776 z"/>
<path transform="translate(0,0)" fill="rgb(70,46,70)" d="M 1370.25 914.579 C 1397.84 941.566 1445.76 940.968 1473.16 913.667 C 1463.72 929.416 1456.72 936.788 1440.65 946.097 C 1441.89 947.625 1444.98 951.244 1445.77 952.75 L 1445.23 954.669 C 1451.09 953.908 1460.12 950.832 1465.82 948.665 C 1458.63 955.744 1454.07 959.925 1445.18 964.842 C 1423.37 978.712 1399.32 978.129 1374.78 974.292 C 1398.12 988.188 1419.19 992.299 1446.29 987.496 C 1412.5 1010.62 1379.86 1009.73 1342.67 995.545 C 1361.9 1017.32 1378.8 1021.77 1407.31 1025.57 C 1368.46 1039.39 1339.63 1034.22 1305.56 1012.16 C 1319.01 1035.95 1325.64 1042.58 1350.01 1054.93 C 1319.84 1056.01 1298.59 1051.27 1275.63 1030.02 C 1273.33 1027.88 1271.08 1025.68 1268.9 1023.42 C 1275.03 1046.62 1277.56 1056.33 1294.82 1073.68 C 1265.97 1066.58 1249.1 1053.61 1232.91 1028.45 C 1228.54 1047.21 1227.91 1061.65 1235.5 1079.78 C 1212.91 1066.49 1204.97 1053.72 1198.2 1028.33 L 1198.06 1027.8 C 1187.53 1042.34 1180.26 1053.47 1171.44 1069.17 C 1163.88 1049.22 1166.82 1045.26 1164.13 1026.66 C 1163.88 1031.27 1163.55 1035.88 1163.13 1040.48 L 1162.82 1031.18 C 1156.59 1028.6 1155 1031.74 1150.52 1035.99 L 1149.78 1034.26 C 1138.66 1043.19 1133.68 1045.88 1120.3 1050.41 C 1131.48 1032.37 1133.55 1023.12 1135.3 1001.86 C 1118.6 1016.73 1108.28 1021.5 1085.75 1022.16 C 1102.55 1009.99 1107.6 997.785 1112.52 978.483 C 1094.06 989.209 1086.35 992.324 1065.18 992.951 C 1077.37 985.396 1093.25 971.361 1091.32 955.409 C 1092.75 954.34 1097.05 950.262 1099.17 948.554 C 1164.39 981.142 1230.84 996.726 1300.11 965.498 C 1329.47 952.264 1347.49 936.317 1370.25 914.579 z"/>
<path transform="translate(0,0)" fill="rgb(243,189,106)" d="M 1406.28 956.277 C 1420.85 953.836 1427.26 952.229 1440.65 946.097 C 1441.89 947.625 1444.98 951.244 1445.77 952.75 L 1445.23 954.669 L 1437.93 956.95 C 1429.44 956.021 1421.93 958.824 1406.28 956.277 z"/>
<path transform="translate(0,0)" fill="rgb(82,49,40)" d="M 1445.23 954.669 C 1451.09 953.908 1460.12 950.832 1465.82 948.665 C 1458.63 955.744 1454.07 959.925 1445.18 964.842 C 1444.06 961.9 1449.25 960.994 1451.47 957.172 L 1449.44 956.456 C 1444.42 957.715 1443.08 957.647 1437.93 956.95 L 1445.23 954.669 z"/>
<path transform="translate(0,0)" fill="rgb(252,225,170)" d="M 1149.78 1034.26 C 1153.23 1030.02 1158.73 1021.57 1163.04 1019.58 C 1164.82 1022.04 1164.12 1022.88 1164.13 1026.66 C 1163.88 1031.27 1163.55 1035.88 1163.13 1040.48 L 1162.82 1031.18 C 1156.59 1028.6 1155 1031.74 1150.52 1035.99 L 1149.78 1034.26 z"/>
<path transform="translate(0,0)" fill="rgb(82,49,40)" d="M 1080.33 938.776 C 1085.94 940.848 1093.73 945.517 1099.17 948.554 C 1097.05 950.262 1092.75 954.34 1091.32 955.409 C 1087.63 949.652 1082.97 944.982 1080.33 938.776 z"/>
<path transform="translate(0,0)" fill="rgb(243,189,106)" d="M 666.502 914.513 C 665.517 909.152 670.026 901.831 673.108 897.474 C 748.376 791.04 907.184 793.61 951.817 926.202 C 952.928 929.502 954.821 936.483 956.738 939.234 C 952.956 944.658 948.564 950.109 945.736 955.978 C 946.82 973.331 959.099 983.711 972.272 992.73 C 951.695 991.661 942.881 990.265 925.809 978.828 C 930.424 1001.13 933.912 1006.42 950.472 1021.33 C 939.113 1027.14 911.886 1009.34 902.93 1001.83 C 903.574 1023.36 905.741 1032.9 918.104 1050.43 C 897.633 1044.18 886.548 1034.61 873.367 1017.98 C 872.76 1038.82 872.991 1050.82 864.67 1069.67 C 857.008 1052.42 850.339 1042.84 838.782 1028.41 C 838.227 1030.44 837.643 1032.47 837.029 1034.48 C 830.889 1054.87 821.469 1069.04 802.404 1079.24 C 808.8 1060.12 809.479 1047.61 804.164 1028.39 C 788.067 1054.55 772.34 1065.99 742.892 1073.63 C 759.204 1057.46 763.405 1045.35 767.123 1023.34 C 743.92 1048.74 722.989 1055.25 689.554 1055.1 C 712.131 1043.93 719.473 1033.66 731.636 1011.8 C 697.77 1034.47 669.761 1038.26 631.002 1025.71 C 658.223 1022.28 677.843 1015.55 695.215 994.179 C 688.49 997.62 681.417 1000.33 674.116 1002.27 C 641.766 1010.74 618.468 1003.87 590.677 987.609 C 621.077 991.408 638.649 989.32 664.016 972.817 C 631.979 980.628 593.902 976.217 572.439 948.406 C 594.108 957.356 608.999 959.012 631.86 956.242 C 627.692 955.589 623.546 954.804 619.428 953.888 C 593.414 947.915 577.589 935.695 563.745 913.361 C 565.953 915.327 568.193 917.257 570.464 919.149 C 595.361 939.712 645.245 940.341 666.502 914.513 z"/>
<path transform="translate(0,0)" fill="rgb(70,46,70)" d="M 666.502 914.513 C 680.972 925.793 693.935 939.144 709.397 949.282 C 781.183 996.349 865.369 989.679 938.497 948.838 C 940.606 951.109 943.306 954.268 945.736 955.978 C 946.82 973.331 959.099 983.711 972.272 992.73 C 951.695 991.661 942.881 990.265 925.809 978.828 C 930.424 1001.13 933.912 1006.42 950.472 1021.33 C 939.113 1027.14 911.886 1009.34 902.93 1001.83 C 903.574 1023.36 905.741 1032.9 918.104 1050.43 C 897.633 1044.18 886.548 1034.61 873.367 1017.98 C 872.76 1038.82 872.991 1050.82 864.67 1069.67 C 857.008 1052.42 850.339 1042.84 838.782 1028.41 C 838.227 1030.44 837.643 1032.47 837.029 1034.48 C 830.889 1054.87 821.469 1069.04 802.404 1079.24 C 808.8 1060.12 809.479 1047.61 804.164 1028.39 C 788.067 1054.55 772.34 1065.99 742.892 1073.63 C 759.204 1057.46 763.405 1045.35 767.123 1023.34 C 743.92 1048.74 722.989 1055.25 689.554 1055.1 C 712.131 1043.93 719.473 1033.66 731.636 1011.8 C 697.77 1034.47 669.761 1038.26 631.002 1025.71 C 658.223 1022.28 677.843 1015.55 695.215 994.179 C 688.49 997.62 681.417 1000.33 674.116 1002.27 C 641.766 1010.74 618.468 1003.87 590.677 987.609 C 621.077 991.408 638.649 989.32 664.016 972.817 C 631.979 980.628 593.902 976.217 572.439 948.406 C 594.108 957.356 608.999 959.012 631.86 956.242 C 627.692 955.589 623.546 954.804 619.428 953.888 C 593.414 947.915 577.589 935.695 563.745 913.361 C 565.953 915.327 568.193 917.257 570.464 919.149 C 595.361 939.712 645.245 940.341 666.502 914.513 z"/>
<path transform="translate(0,0)" fill="rgb(82,49,40)" d="M 956.738 939.234 C 952.956 944.658 948.564 950.109 945.736 955.978 C 943.306 954.268 940.606 951.109 938.497 948.838 C 944.165 945.557 950.712 941.442 956.738 939.234 z"/>
<path transform="translate(0,0)" fill="rgb(252,225,170)" d="M 993.745 491.489 C 1106.16 488.564 1203.61 512.516 1297.66 576.771 C 1324.89 595.375 1347.64 616.154 1368.56 641.643 C 1370.86 644.449 1377.44 651.373 1378 654.391 L 1376.96 654.461 C 1363.25 634.423 1337.81 609.313 1318.64 594.29 L 1316.8 595.01 C 1316.84 598.676 1318.81 600.875 1321.07 603.821 C 1311.98 605.097 1278.32 602.555 1278.38 602.533 C 1278.69 604.364 1278.84 605.323 1279.03 607.205 C 1277.12 607.227 1276.17 606.478 1274.2 605.618 C 1275.6 603.736 1275.53 604.6 1275.46 602.868 C 1269.01 602.823 1263.51 606.195 1259.37 606.18 C 1246.19 606.259 1233.27 607.666 1220.06 607.787 C 1213.44 607.848 1206.51 605.544 1202 609.57 C 1184.5 609.184 1174.13 616.443 1157.66 616.248 C 1156.45 616.233 1142.9 611.299 1140.06 610.459 C 1139.35 610.788 1138.63 611.108 1137.92 611.42 C 1131.87 614.014 1130.11 611.301 1124.15 609.698 C 1111.85 606.612 1097.04 612.596 1084.87 613.111 C 1077 612.413 1071.6 608.179 1064.28 613.704 C 1059.41 617.381 1054.61 614.146 1049.44 615.882 C 1030.92 612.54 1030.72 623.479 1016.31 622.193 C 1002.18 620.934 1011.07 625.176 999.973 626.727 C 997.283 624.786 997.572 622.51 996.782 621.464 C 991.459 614.416 975.496 619.942 968.882 615.844 C 967.388 614.918 958.742 611.143 958.879 611.153 C 954.911 610.877 943.015 617.187 939.479 617.343 C 924.488 618.003 908.933 617.136 894 617.039 C 885.915 616.986 877.274 608.642 869.678 610.701 C 869.033 611.316 865.709 614.435 865.168 614.49 C 853.809 615.634 840.221 612.735 828.738 612.726 C 824.057 612.723 819.31 615.327 814.995 615.343 C 811.89 615.354 800.033 611.635 797.636 612.414 C 788.937 615.242 779.148 614.835 770.08 615.844 C 767.201 616.164 761.489 615.413 759.38 616.312 C 749.504 620.638 736.945 618.362 727.633 613.685 C 719.737 609.721 722.755 609.535 713.907 610.318 C 712.566 606.522 712.116 605.207 711.55 601.216 L 711.433 600.338 C 697.195 609.244 667.297 643.108 658.403 656.792 C 658.89 652.16 668.359 641.022 671.893 637.031 C 754.315 543.966 871.941 499.471 993.745 491.489 z"/>
<path transform="translate(0,0)" fill="rgb(154,96,73)" d="M 853.137 673.106 C 863.792 673.576 874.586 679.049 873.009 691.092 C 870.235 712.274 847.529 736.87 832.469 750.289 C 788.308 789.642 731.463 802.555 673.605 799.257 C 659.511 797.475 648.707 788.112 653.816 773.426 C 659.168 758.038 682.396 763.322 695.276 762.902 C 716.169 762.296 736.845 758.495 756.587 751.631 C 789.556 740.213 815.372 719.714 834.933 691.12 C 840.867 682.447 843.042 677.142 853.137 673.106 z"/>
<path transform="translate(0,0)" fill="rgb(154,96,73)" d="M 1176.13 674.164 C 1196.67 671.75 1197.31 685.893 1208.72 699.556 C 1215.3 707.396 1222.48 714.714 1230.19 721.446 C 1260.16 747.396 1299.54 760.853 1338.72 763.77 C 1348.03 765.23 1362.24 761.794 1370.93 764.512 C 1391.08 770.81 1387.43 791.211 1370.77 799.483 C 1347.04 802.987 1313.34 799.271 1289.95 793.68 C 1241.57 782.074 1196.79 751.404 1170.46 708.974 C 1161.74 694.913 1160.84 683.052 1176.13 674.164 z"/>
<path transform="translate(0,0)" fill="url(#Gradient3)" d="M 155.385 807.947 L 155.286 676.742 C 155.224 646.292 153.969 605.866 156.913 576.339 C 163.42 514.607 190.875 456.965 234.706 413.01 C 275.86 371.603 329.461 344.839 387.288 336.824 C 406.117 334.394 426.576 334.512 445.695 334.401 L 1247.23 334.346 L 1489.31 334.296 L 1566.38 334.209 C 1590.86 334.225 1614.3 333.686 1638.54 338.016 C 1692.51 347.4 1742.24 373.3 1780.87 412.144 C 1841.57 472.272 1861.51 540.439 1861.81 623.517 L 1862.01 814.179 C 1855.15 821.904 1834.88 837.06 1826.26 843.515 C 1756.13 895.498 1679.94 938.762 1599.36 972.354 C 1584.66 978.488 1563.98 987.501 1549.04 991.687 C 1550.3 973.499 1550.4 955.25 1549.36 937.049 C 1542.2 796.962 1479.59 665.48 1375.36 571.613 C 1269.23 475.841 1129.04 426.776 986.35 435.463 C 846.087 443.903 714.902 507.643 621.582 612.698 C 528.2 716.134 480.069 852.624 487.914 991.756 C 450.215 976.477 420.394 965.579 382.515 948.055 C 301.786 910.026 225.596 863.027 155.385 807.947 z"/>
<path transform="translate(0,0)" fill="rgb(179,99,69)" d="M 505.611 1059.27 L 506.794 1061.36 C 510.607 1062.62 529.181 1033.36 563.796 1045.7 C 590.04 1055.14 604.177 1095.23 613.165 1119.77 C 622.621 1123.08 648.209 1131.41 655.113 1136.4 C 663.092 1139.36 670.944 1144.19 679.247 1147.2 C 708.602 1157.81 751.936 1166.04 765.679 1198.32 C 780.873 1234.01 790.626 1315 782.739 1352.69 C 781.048 1360.87 778.826 1368.93 776.087 1376.82 C 774.718 1380.79 769.057 1393.1 771.026 1395.98 C 768.394 1398.1 769.031 1396.8 768.695 1399.83 C 773.712 1408.76 833.8 1432.08 846.353 1436.52 C 937.844 1468.9 1039.72 1474.95 1134.25 1452.67 C 1142.88 1450.64 1154.78 1448.51 1162.99 1445.88 C 1190.99 1436.78 1218.47 1426.13 1245.28 1413.97 C 1252.73 1410.62 1262.92 1403.52 1270.01 1400.36 C 1281.57 1395.21 1290.39 1426.35 1299.34 1437.86 C 1327.29 1473.78 1355.29 1496.14 1398.33 1512.84 C 1453.1 1534.09 1514.38 1559.3 1573.81 1541.07 C 1577.06 1540.08 1584.61 1538.78 1586.39 1537.85 C 1661.7 1499.03 1702.13 1406.4 1737.93 1334.09 C 1749.27 1311.19 1757.61 1291.83 1767.29 1268.01 C 1781.66 1232.62 1774.03 1190.83 1728.04 1190.19 C 1723.38 1190.12 1715.5 1193.98 1711.2 1192.57 C 1712.18 1171.76 1713.67 1151.13 1696.42 1136.05 C 1673.42 1115.93 1658.8 1119.45 1633.39 1130.5 L 1631.78 1128.91 C 1632.58 1115.79 1629.94 1113.37 1629.2 1104.39 C 1627.56 1084.58 1605.36 1077.62 1602.18 1070.53 C 1628.12 1081.24 1632.95 1102.35 1634.89 1127.27 C 1650.25 1120.65 1664.46 1116.6 1680.71 1123.39 C 1711.76 1136.37 1715.42 1162.21 1713.88 1190.9 C 1722.41 1188.96 1732.79 1186.66 1741.27 1189.31 C 1806.13 1209.61 1763.83 1287.33 1743.06 1328.68 C 1704.17 1406.12 1657.23 1524.4 1563.19 1546.48 C 1535.25 1553.04 1493.09 1547.39 1465.99 1539.34 C 1427 1526.23 1384.79 1513.38 1350.36 1490.43 C 1326.11 1474.2 1306.31 1455.29 1291.07 1430.47 C 1286.07 1422.39 1278.83 1408.69 1273.31 1402.08 C 1171.5 1454.63 1072.38 1477.82 957.121 1464.12 C 884.813 1455.52 829.158 1436.53 764.795 1402.57 C 720.819 1486.68 671.027 1507.34 584.37 1536.68 C 541.241 1551.28 484.728 1556.35 443.406 1534.34 C 418.915 1520.8 393.445 1496.34 377.212 1473.48 C 341.358 1423 313.865 1364.64 287.584 1308.64 C 274.131 1279.98 253.314 1239.71 270.987 1208.96 C 276.829 1198.7 286.517 1191.19 297.909 1188.09 C 307.458 1185.56 316.278 1186.55 325.952 1187.46 C 325.704 1177.67 324.934 1168.34 327.975 1158.93 C 339.942 1121.88 371.17 1113.03 404.724 1125.98 C 405.01 1116.02 405.552 1107.19 409.992 1098.14 C 426.597 1064.29 464.229 1054.25 492.874 1079.71 C 494.734 1081.12 494.568 1080.95 496.655 1082.01 L 498.688 1081 C 501.157 1075.65 497.842 1063.01 496.622 1056.7 C 501.57 1060.3 501.108 1061.23 503.421 1066.64 C 505.445 1062.65 504.467 1061.6 505.611 1059.27 z"/>
<path transform="translate(0,0)" fill="rgb(243,189,106)" d="M 557.76 1165.95 C 560.702 1168.19 562.931 1167.74 566.334 1169.05 C 573.479 1170.52 579.081 1175.87 585.666 1178.42 C 614.562 1189.6 649.757 1206.25 669.273 1171.83 C 688.017 1180.66 720.142 1183.15 735.941 1197.74 C 750.028 1210.75 754.779 1249.6 759.081 1268.34 C 764.357 1294.6 769.636 1319.96 771.739 1346.54 C 771.856 1348.2 773.062 1349.87 773.979 1351.17 C 772.559 1375.48 748.834 1418.32 733.785 1437.1 C 728.891 1438.84 715.927 1449.67 710.952 1453.53 C 676.617 1480.31 636.058 1493.33 595.367 1506.55 C 556.927 1519.03 526.367 1527.01 485.478 1521.16 C 429.908 1513.21 411.977 1470.19 383.046 1429.93 C 386.845 1432.87 390.052 1436.65 394.141 1439.33 C 428.959 1462.15 446.692 1449.23 450.101 1411.37 C 466.909 1429.03 497.944 1448.47 520.78 1426.42 C 530.973 1416.58 529.747 1397.7 529.324 1384.32 C 541.023 1393.72 547.046 1396.86 560.17 1403.76 C 560.768 1435.2 565.15 1447.99 581.639 1474.42 C 578.081 1462.37 564.714 1409.84 578.501 1402.48 C 581.369 1402.91 590.223 1412.78 592.921 1415.54 C 598.07 1390.13 606.454 1368.51 627.489 1352.61 C 652.972 1354.14 665.204 1353.5 671.292 1325.73 L 668.822 1322.7 C 653.465 1356.22 627.999 1342.74 611.124 1319.9 C 606.177 1313.2 601.041 1306.4 596.037 1299.74 C 594.262 1294.72 589.104 1287.95 587.611 1282.65 C 585.326 1274.56 578.377 1261.61 576.659 1253.97 C 576.233 1243.31 574.992 1238.17 575.729 1227.05 C 576.5 1224.16 577.352 1221.48 578.254 1218.63 C 579.008 1216.55 579.761 1214.47 580.515 1212.39 C 571.631 1197.07 560.319 1184.28 557.76 1165.95 z"/>
<path transform="translate(0,0)" fill="rgb(224,124,144)" d="M 578.254 1218.63 C 581.075 1218.13 584.244 1216.82 586.158 1217.03 C 603.687 1230.11 609.36 1233.39 628.903 1243.4 C 633.474 1245.32 639.74 1247.75 643.978 1250.04 L 651.382 1252.87 C 656.944 1255.08 658.06 1255.63 662.942 1259.07 L 663.349 1260.87 C 663.072 1263.99 670.644 1310.53 671.914 1313.3 C 670.157 1317.32 669.468 1318.45 668.822 1322.7 C 653.465 1356.22 627.999 1342.74 611.124 1319.9 C 606.177 1313.2 601.041 1306.4 596.037 1299.74 C 594.262 1294.72 589.104 1287.95 587.611 1282.65 C 585.326 1274.56 578.377 1261.61 576.659 1253.97 C 576.233 1243.31 574.992 1238.17 575.729 1227.05 C 576.5 1224.16 577.352 1221.48 578.254 1218.63 z"/>
<path transform="translate(0,0)" fill="rgb(185,89,96)" d="M 578.254 1218.63 C 581.075 1218.13 584.244 1216.82 586.158 1217.03 C 577.685 1248.18 587.045 1267.44 602.097 1295.83 C 609.604 1310 633.462 1344.42 654.24 1333.54 C 671.121 1322.47 656.713 1267.58 651.382 1252.87 C 656.944 1255.08 658.06 1255.63 662.942 1259.07 L 663.349 1260.87 C 663.072 1263.99 670.644 1310.53 671.914 1313.3 C 670.157 1317.32 669.468 1318.45 668.822 1322.7 C 653.465 1356.22 627.999 1342.74 611.124 1319.9 C 606.177 1313.2 601.041 1306.4 596.037 1299.74 C 594.262 1294.72 589.104 1287.95 587.611 1282.65 C 585.326 1274.56 578.377 1261.61 576.659 1253.97 C 576.233 1243.31 574.992 1238.17 575.729 1227.05 C 576.5 1224.16 577.352 1221.48 578.254 1218.63 z"/>
<path transform="translate(0,0)" fill="rgb(247,178,195)" d="M 628.903 1243.4 C 633.474 1245.32 639.74 1247.75 643.978 1250.04 C 644.315 1251.24 645.222 1253.45 645.754 1254.47 C 651.575 1265.61 660.305 1304.53 655.761 1315.74 L 654.401 1315.04 C 647.621 1302.86 643.97 1282.65 637.966 1269.46 C 635.9 1264.93 628.217 1247.44 628.903 1243.4 z"/>
<path transform="translate(0,0)" fill="url(#Gradient2)" d="M 557.76 1165.95 C 560.702 1168.19 562.931 1167.74 566.334 1169.05 C 574.351 1190.34 582.223 1204.8 600.758 1218.75 C 632.631 1242.73 666.896 1251.26 705.995 1253.7 C 695.441 1257.55 663.918 1260.56 663.349 1260.87 L 662.942 1259.07 C 658.06 1255.63 656.944 1255.08 651.382 1252.87 L 643.978 1250.04 C 639.74 1247.75 633.474 1245.32 628.903 1243.4 C 609.36 1233.39 603.687 1230.11 586.158 1217.03 C 584.244 1216.82 581.075 1218.13 578.254 1218.63 C 579.008 1216.55 579.761 1214.47 580.515 1212.39 C 571.631 1197.07 560.319 1184.28 557.76 1165.95 z"/>
<path transform="translate(0,0)" fill="rgb(211,134,91)" d="M 671.914 1313.3 C 680.462 1326.54 684.139 1330.85 695.32 1341.77 C 684.9 1336.66 679.738 1333.82 671.292 1325.73 L 668.822 1322.7 C 669.468 1318.45 670.157 1317.32 671.914 1313.3 z"/>
<path transform="translate(0,0)" fill="rgb(154,96,73)" d="M 508.879 1063.62 C 525.057 1048.15 537.295 1041.81 560.28 1046.44 C 562.423 1046.87 561.81 1046.61 563.796 1045.7 C 590.04 1055.14 604.177 1095.23 613.165 1119.77 C 622.621 1123.08 648.209 1131.41 655.113 1136.4 C 648.046 1137 616.538 1121.56 609.438 1120.21 C 601.953 1118.8 582.933 1113.46 577.537 1112.82 L 576.008 1112.65 L 576.535 1110.96 C 559.755 1108.16 538.916 1105.93 528.542 1122.75 C 528.831 1138.53 532.603 1138.29 541.486 1149.58 C 546.236 1153.47 556.776 1160.61 557.76 1165.95 C 560.319 1184.28 571.631 1197.07 580.515 1212.39 C 579.761 1214.47 579.008 1216.55 578.254 1218.63 C 577.352 1221.48 576.5 1224.16 575.729 1227.05 C 574.992 1238.17 576.233 1243.31 576.659 1253.97 C 578.377 1261.61 585.326 1274.56 587.611 1282.65 C 589.104 1287.95 594.262 1294.72 596.037 1299.74 C 596.503 1305.79 596.621 1318.47 597.678 1323.69 C 612.693 1397.96 571.849 1410.02 528.186 1349.2 L 528.704 1345.21 C 525.66 1339.56 521.222 1331.82 516.289 1327.8 C 508.045 1315.03 505.388 1300.97 501.259 1286.8 L 500.638 1287.25 C 497.518 1284.76 485.427 1257.78 482.623 1251.49 C 460.965 1202.88 429.959 1153.99 417.278 1102.34 C 426.087 1084.94 437.336 1074.96 457.572 1073.79 C 468.459 1074.16 470.981 1075.51 481.076 1080.4 C 497.247 1094.45 501.144 1103.64 510.564 1123.13 C 512.855 1114.24 496.859 1097.61 493.905 1089.39 C 496.573 1088.14 498.685 1086.97 501.233 1085.54 C 504.921 1079.74 501.022 1075.29 504.399 1070.95 L 506.281 1073.32 C 507.631 1070.19 508.154 1066.96 508.879 1063.62 z"/>
<path transform="translate(0,0)" fill="rgb(243,189,106)" d="M 417.278 1102.34 C 426.087 1084.94 437.336 1074.96 457.572 1073.79 L 458.162 1074.34 C 463.395 1079.16 471.775 1084.67 475.331 1090.17 C 486.261 1107.1 494.784 1128.29 503.185 1146.72 C 517.697 1177.77 531.779 1209.03 545.426 1240.47 C 513.443 1235.8 499.108 1256.83 501.259 1286.8 L 500.638 1287.25 C 497.518 1284.76 485.427 1257.78 482.623 1251.49 C 460.965 1202.88 429.959 1153.99 417.278 1102.34 z"/>
<path transform="translate(0,0)" fill="rgb(243,189,106)" d="M 513.504 1069.29 C 521.493 1057.48 537.711 1049.47 552.004 1051.45 C 568.386 1073.57 573.086 1088.55 584.06 1112.37 L 576.535 1110.96 C 559.755 1108.16 538.916 1105.93 528.542 1122.75 C 522.248 1121.3 514.194 1076.49 513.504 1069.29 z"/>
<path transform="translate(0,0)" fill="rgb(252,225,170)" d="M 457.572 1073.79 C 468.459 1074.16 470.981 1075.51 481.076 1080.4 C 497.247 1094.45 501.144 1103.64 510.564 1123.13 C 529.833 1170.08 554.142 1223.13 575.62 1269.42 C 565.288 1255.96 560.732 1248.6 545.426 1240.47 C 531.779 1209.03 517.697 1177.77 503.185 1146.72 C 494.784 1128.29 486.261 1107.1 475.331 1090.17 C 471.775 1084.67 463.395 1079.16 458.162 1074.34 L 457.572 1073.79 z"/>
<path transform="translate(0,0)" fill="rgb(219,145,90)" d="M 513.504 1069.29 C 514.194 1076.49 522.248 1121.3 528.542 1122.75 C 528.831 1138.53 532.603 1138.29 541.486 1149.58 C 546.236 1153.47 556.776 1160.61 557.76 1165.95 C 560.319 1184.28 571.631 1197.07 580.515 1212.39 C 579.761 1214.47 579.008 1216.55 578.254 1218.63 C 577.352 1221.48 576.5 1224.16 575.729 1227.05 C 574.992 1238.17 576.233 1243.31 576.659 1253.97 L 528.463 1145.38 C 521.513 1129.9 512.948 1111.91 506.767 1096.01 C 503.871 1088.56 509.071 1076.11 513.504 1069.29 z"/>
<path transform="translate(0,0)" fill="rgb(243,189,106)" d="M 541.486 1149.58 C 546.236 1153.47 556.776 1160.61 557.76 1165.95 C 560.319 1184.28 571.631 1197.07 580.515 1212.39 C 579.761 1214.47 579.008 1216.55 578.254 1218.63 C 577.352 1221.48 576.5 1224.16 575.729 1227.05 C 571.718 1220.79 541.913 1154.79 541.486 1149.58 z"/>
<path transform="translate(0,0)" fill="rgb(252,225,170)" d="M 552.004 1051.45 C 585.417 1057.79 590.413 1091.14 604.008 1117.18 L 584.06 1112.37 C 573.086 1088.55 568.386 1073.57 552.004 1051.45 z"/>
<path transform="translate(0,0)" fill="rgb(224,124,144)" d="M 529.053 1247.09 C 539.299 1246.81 546.823 1247.79 554.926 1255.67 C 578.071 1279.58 591.946 1318.84 594.164 1351.62 C 595.2 1366.94 591.601 1380.97 574.274 1381.07 C 551.838 1374.74 529.599 1341.69 520.331 1321.72 C 508.741 1296.74 496.492 1261.28 529.053 1247.09 z"/>
<path transform="translate(0,0)" fill="rgb(247,178,195)" d="M 538.946 1256.89 C 546.286 1257.07 553.974 1262.81 557.844 1268.62 C 575.291 1294.8 591.5 1330.83 588.647 1362.72 C 585.76 1358.26 582.42 1349.3 580.234 1344.08 C 571.239 1322.6 562.157 1301.58 551.067 1281.07 C 547.757 1274.95 540.506 1263.17 538.946 1256.89 z"/>
<path transform="translate(0,0)" fill="rgb(219,145,90)" d="M 308.965 1329.84 C 292.04 1298.48 269.658 1260.92 273.454 1225.1 C 274.609 1248.16 332.117 1348.02 347.859 1370.45 C 351.153 1375.15 355.917 1382.94 359.599 1387.7 C 360.128 1388.38 360.868 1388.75 361.672 1389.22 L 362.514 1388.71 C 363.806 1390.02 370.121 1399.38 371.677 1401.47 C 380.33 1413.11 391.6 1426.32 403.899 1434.14 C 409.068 1437.3 416.793 1439.86 422.815 1437.56 C 448.773 1427.66 435.961 1394.24 429.57 1376.61 C 439.107 1382.4 443.415 1384.85 454.152 1387.62 C 452.287 1383.07 451.326 1382.34 448.014 1378.52 C 445.135 1372.87 439.232 1362.8 435.527 1357.82 C 425.773 1337.81 414.349 1307.35 434.696 1288.3 C 442.381 1281.1 450.894 1280.67 460.885 1281.12 C 472.39 1285.85 476.164 1288.46 485.707 1296.53 C 493.219 1303.66 495.356 1308.9 501.561 1315.64 C 503.861 1320.13 506.074 1324.66 508.197 1329.24 C 508.89 1334.54 508.968 1338.76 512.476 1342.99 C 515.857 1343.91 525.196 1347.39 528.186 1349.2 C 571.849 1410.02 612.693 1397.96 597.678 1323.69 C 596.621 1318.47 596.503 1305.79 596.037 1299.74 C 601.041 1306.4 606.177 1313.2 611.124 1319.9 C 627.999 1342.74 653.465 1356.22 668.822 1322.7 L 671.292 1325.73 C 665.204 1353.5 652.972 1354.14 627.489 1352.61 C 606.454 1368.51 598.07 1390.13 592.921 1415.54 C 590.223 1412.78 581.369 1402.91 578.501 1402.48 C 564.714 1409.84 578.081 1462.37 581.639 1474.42 C 565.15 1447.99 560.768 1435.2 560.17 1403.76 C 547.046 1396.86 541.023 1393.72 529.324 1384.32 C 529.747 1397.7 530.973 1416.58 520.78 1426.42 C 497.944 1448.47 466.909 1429.03 450.101 1411.37 C 446.692 1449.23 428.959 1462.15 394.141 1439.33 C 390.052 1436.65 386.845 1432.87 383.046 1429.93 C 411.977 1470.19 429.908 1513.21 485.478 1521.16 C 526.367 1527.01 556.927 1519.03 595.367 1506.55 C 636.058 1493.33 676.617 1480.31 710.952 1453.53 C 715.927 1449.67 728.891 1438.84 733.785 1437.1 C 720.735 1459.76 681.265 1489.3 657.819 1499.44 C 578.065 1533.95 480.071 1572.79 409.662 1498.33 C 369.502 1455.86 342.646 1404.07 317.514 1351.59 C 311.872 1347.48 307.622 1337.1 308.965 1329.84 z"/>
<path transform="translate(0,0)" fill="rgb(185,89,96)" d="M 435.527 1357.82 C 425.773 1337.81 414.349 1307.35 434.696 1288.3 C 442.381 1281.1 450.894 1280.67 460.885 1281.12 C 472.39 1285.85 476.164 1288.46 485.707 1296.53 C 493.219 1303.66 495.356 1308.9 501.561 1315.64 C 503.861 1320.13 506.074 1324.66 508.197 1329.24 C 508.89 1334.54 508.968 1338.76 512.476 1342.99 C 520.98 1366.49 537.601 1414.07 501.677 1422.31 C 481.237 1417.83 475.989 1410.45 462.153 1395.73 C 460.691 1394.18 455.615 1388.6 454.152 1387.62 C 452.287 1383.07 451.326 1382.34 448.014 1378.52 C 445.135 1372.87 439.232 1362.8 435.527 1357.82 z"/>
<path transform="translate(0,0)" fill="rgb(224,124,144)" d="M 450.374 1288.07 C 487.037 1284.07 515.162 1357.96 516.447 1386.94 C 517.109 1401.89 516.077 1414.59 498.565 1414.75 C 467.353 1407.17 396.564 1308.67 450.374 1288.07 z"/>
<path transform="translate(0,0)" fill="rgb(247,178,195)" d="M 459.107 1301.13 C 484.841 1298.52 506.722 1359.02 510.007 1379.63 C 510.74 1384.23 511.184 1389.59 511.522 1394.27 C 506.455 1389.85 485.363 1340.44 478.064 1332 C 477.116 1330.91 459.761 1302.69 459.107 1301.13 z"/>
<path transform="translate(0,0)" fill="rgb(211,134,91)" d="M 308.965 1329.84 C 312.408 1334.9 319.932 1344.55 319.944 1350.1 L 317.514 1351.59 C 311.872 1347.48 307.622 1337.1 308.965 1329.84 z"/>
<path transform="translate(0,0)" fill="rgb(243,189,106)" d="M 336.769 1159.82 C 343.001 1140.26 361.574 1125.13 382.726 1128.49 L 381.468 1129.97 C 384.629 1134.55 392.563 1139.69 394.636 1143.69 C 415.007 1183.02 432.034 1224.07 452.532 1263.38 C 455.423 1268.92 458.557 1275.35 460.885 1281.12 C 450.894 1280.67 442.381 1281.1 434.696 1288.3 C 414.349 1307.35 425.773 1337.81 435.527 1357.82 C 436.167 1360.21 437.146 1362.83 437.952 1365.2 L 437.607 1365.57 C 416.071 1326.87 395.363 1287.71 375.495 1248.12 C 359.764 1216.76 346.439 1193.96 336.769 1159.82 z"/>
<path transform="translate(0,0)" fill="rgb(243,189,106)" d="M 273.454 1225.1 C 279.484 1205.97 291.421 1194.15 312.181 1194.37 C 322.603 1196.77 328.347 1197.12 333.707 1207.11 C 344.349 1227.94 355.129 1248.7 366.045 1269.39 C 374.649 1285.52 384.99 1303.65 392.769 1319.99 C 384.943 1315.91 376.273 1312.06 367.617 1315.45 C 331.725 1329.54 351.225 1367.71 362.514 1388.71 L 361.672 1389.22 C 360.868 1388.75 360.128 1388.38 359.599 1387.7 C 355.917 1382.94 351.153 1375.15 347.859 1370.45 C 332.117 1348.02 274.609 1248.16 273.454 1225.1 z"/>
<path transform="translate(0,0)" fill="rgb(252,225,170)" d="M 312.181 1194.37 C 322.603 1196.77 328.347 1197.12 333.707 1207.11 L 331.215 1207.53 C 324.849 1204.26 315.011 1200.21 312.181 1194.37 z"/>
<path transform="translate(0,0)" fill="rgb(252,225,170)" d="M 671.305 1153.12 C 700.057 1163.88 747.258 1173.24 758.864 1202.97 C 773.176 1239.64 781.697 1312.96 773.979 1351.17 C 773.062 1349.87 771.856 1348.2 771.739 1346.54 C 769.636 1319.96 764.357 1294.6 759.081 1268.34 C 754.779 1249.6 750.028 1210.75 735.941 1197.74 C 720.142 1183.15 688.017 1180.66 669.273 1171.83 C 671.245 1163.95 671.128 1161.31 671.305 1153.12 z"/>
<path transform="translate(0,0)" fill="rgb(252,225,170)" d="M 382.726 1128.49 C 399.769 1131.25 408.207 1138.69 415.969 1153.96 C 424.602 1170.96 433.034 1188.08 441.444 1205.18 L 470.495 1265.1 C 475.122 1274.66 481.789 1287.15 485.707 1296.53 C 476.164 1288.46 472.39 1285.85 460.885 1281.12 C 458.557 1275.35 455.423 1268.92 452.532 1263.38 C 432.034 1224.07 415.007 1183.02 394.636 1143.69 C 392.563 1139.69 384.629 1134.55 381.468 1129.97 L 382.726 1128.49 z"/>
<path transform="translate(0,0)" fill="rgb(219,145,90)" d="M 501.561 1315.64 C 497.795 1303.55 483.301 1274.63 477.19 1262.03 L 434.142 1173.64 C 423.387 1151.8 404.446 1126.98 417.278 1102.34 C 429.959 1153.99 460.965 1202.88 482.623 1251.49 C 485.427 1257.78 497.518 1284.76 500.638 1287.25 L 501.259 1286.8 C 505.388 1300.97 508.045 1315.03 516.289 1327.8 C 521.222 1331.82 525.66 1339.56 528.704 1345.21 L 528.186 1349.2 C 525.196 1347.39 515.857 1343.91 512.476 1342.99 C 508.968 1338.76 508.89 1334.54 508.197 1329.24 C 506.074 1324.66 503.861 1320.13 501.561 1315.64 z"/>
<path transform="translate(0,0)" fill="rgb(179,99,69)" d="M 516.289 1327.8 C 521.222 1331.82 525.66 1339.56 528.704 1345.21 L 528.186 1349.2 C 525.196 1347.39 515.857 1343.91 512.476 1342.99 C 508.968 1338.76 508.89 1334.54 508.197 1329.24 C 512.9 1332.89 517.631 1336.51 522.389 1340.09 C 520.255 1336.14 518.26 1331.85 516.289 1327.8 z"/>
<path transform="translate(0,0)" fill="rgb(219,145,90)" d="M 448.014 1378.52 C 427.987 1370.05 424.928 1361.98 414.834 1344.04 C 391.499 1302.55 370.029 1260.11 347.94 1217.96 C 336.848 1196.79 330.035 1184.08 336.769 1159.82 C 346.439 1193.96 359.764 1216.76 375.495 1248.12 C 395.363 1287.71 416.071 1326.87 437.607 1365.57 L 437.952 1365.2 C 437.146 1362.83 436.167 1360.21 435.527 1357.82 C 439.232 1362.8 445.135 1372.87 448.014 1378.52 z"/>
<path transform="translate(0,0)" fill="rgb(224,124,144)" d="M 664.107 1149.5 C 665.227 1165.12 661.34 1184.59 641.606 1185.08 C 610.198 1185.86 575.933 1168.14 551.95 1148.94 C 534.693 1135.12 526.412 1115.01 557.748 1116.96 C 580.784 1118.09 598.034 1123.83 619.76 1130.37 C 635.469 1133.82 650.506 1141.06 664.107 1149.5 z"/>
<path transform="translate(0,0)" fill="rgb(247,178,195)" d="M 557.748 1116.96 C 580.784 1118.09 598.034 1123.83 619.76 1130.37 C 626.597 1138.62 644.098 1138.63 658.146 1158.63 C 645.558 1156.61 564.884 1125.08 557.748 1116.96 z"/>
<path transform="translate(0,0)" fill="rgb(224,124,144)" d="M 370.225 1320.99 C 376.306 1320.38 380.937 1320.31 386.233 1324.3 C 409.291 1342.32 423.767 1373.69 430.452 1401.54 C 433.558 1414.48 433.541 1429.71 417.776 1432.15 C 396.115 1426.83 377.505 1401.23 367.126 1382.69 C 355.642 1362.18 342.756 1334.97 370.225 1320.99 z"/>
<path transform="translate(0,0)" fill="rgb(247,178,195)" d="M 376.356 1330.65 C 381.963 1330.92 384.721 1331.89 388.833 1335.88 C 403.416 1350.03 426.478 1392.47 427.011 1412.22 C 424.318 1409.88 413.795 1390.5 411.054 1385.62 C 400.295 1366.47 388.551 1348.86 376.356 1330.65 z"/>
<path transform="translate(0,0)" fill="rgb(243,189,106)" d="M 1473.5 1169.18 C 1476.91 1166.49 1477.17 1166.47 1481.4 1165.15 C 1478.79 1184.72 1468.46 1195.58 1459.41 1211.92 C 1458.99 1212.69 1461.11 1216.67 1461.72 1218.03 C 1457.56 1215.97 1456.57 1214.15 1452.51 1217.07 C 1437.72 1229.46 1430.17 1234.01 1412.71 1242.55 L 1398.23 1248.31 C 1394.02 1249.37 1392.73 1249.59 1388.92 1251.5 C 1385.66 1252.41 1381.73 1253.13 1379.25 1255.22 L 1376.68 1263.75 C 1373.1 1278.49 1371.66 1292.76 1370.04 1307.77 C 1371.73 1313.83 1371.77 1315.09 1372.03 1321.34 L 1369.49 1324.1 C 1372.27 1333.58 1372.48 1343.93 1382.27 1349.77 C 1389.74 1354.24 1404.49 1352.92 1413.34 1352.6 C 1436.71 1369.81 1441.69 1385.93 1448.51 1414.08 C 1452.36 1409.77 1456.31 1405.13 1460.49 1401.2 C 1466.88 1403.25 1466.13 1410.45 1466.75 1416.21 C 1468.78 1434.97 1464.65 1453.77 1458.44 1471.41 C 1477.25 1447.77 1478.12 1432.88 1477.65 1403.75 C 1490.71 1397.56 1500.85 1392.97 1511.27 1382.52 C 1510.74 1396.84 1509.24 1415.95 1520.04 1426.59 C 1542.73 1448.94 1574.01 1426.86 1590.92 1410.42 C 1594.53 1465.58 1629.4 1456.05 1659.87 1426 C 1633.85 1465.9 1610.74 1510.75 1559.48 1520.78 C 1517.52 1528.99 1483.09 1519.33 1443.66 1506.54 C 1407.43 1494.8 1371.7 1483.45 1339.79 1461.77 C 1335.02 1458.56 1312.03 1442.82 1308.76 1438.96 C 1291.41 1418.48 1272.23 1383.76 1266.58 1357.61 C 1265.99 1354.91 1265.2 1350.13 1265.2 1347.73 C 1266.74 1347.27 1267.51 1347.31 1267.52 1345.57 C 1267.67 1338.75 1268.3 1332 1269.72 1325.3 C 1277.13 1290.32 1282.5 1254.19 1291.95 1219.76 C 1298.24 1196.82 1315.77 1189.07 1336.41 1182.18 C 1346.47 1178.82 1361.43 1173.16 1371.77 1172.69 C 1394.48 1212.07 1441.76 1182.03 1472.05 1169.6 C 1472.54 1169.46 1473.02 1169.32 1473.5 1169.18 z"/>
<path transform="translate(0,0)" fill="url(#Gradient1)" d="M 1473.5 1169.18 C 1476.91 1166.49 1477.17 1166.47 1481.4 1165.15 C 1478.79 1184.72 1468.46 1195.58 1459.41 1211.92 C 1458.99 1212.69 1461.11 1216.67 1461.72 1218.03 C 1457.56 1215.97 1456.57 1214.15 1452.51 1217.07 C 1437.72 1229.46 1430.17 1234.01 1412.71 1242.55 L 1398.23 1248.31 C 1394.02 1249.37 1392.73 1249.59 1388.92 1251.5 C 1385.66 1252.41 1381.73 1253.13 1379.25 1255.22 L 1376.68 1263.75 C 1374.42 1261.37 1359.79 1259.88 1355.46 1259.25 C 1347.59 1258.29 1340.77 1256.04 1333.35 1253.44 C 1392.28 1250.15 1451.95 1228.69 1473.5 1169.18 z"/>
<path transform="translate(0,0)" fill="rgb(211,134,91)" d="M 1355.46 1259.25 C 1361.91 1259.93 1372.74 1256.98 1379.25 1255.22 L 1376.68 1263.75 C 1374.42 1261.37 1359.79 1259.88 1355.46 1259.25 z"/>
<path transform="translate(0,0)" fill="rgb(211,134,91)" d="M 1370.04 1307.77 C 1371.73 1313.83 1371.77 1315.09 1372.03 1321.34 L 1369.49 1324.1 C 1361.66 1332.26 1352.41 1337.52 1342.53 1342.74 C 1354.54 1331.08 1361.25 1321.96 1370.04 1307.77 z"/>
<path transform="translate(0,0)" fill="rgb(243,189,106)" d="M 1578.27 1074.51 C 1597.99 1071.7 1616.41 1086 1623.18 1103.9 C 1618.95 1126.14 1610.26 1141.65 1601.07 1162.19 C 1589.79 1187.41 1577.71 1212.49 1565.33 1237.19 C 1557.83 1252.16 1550.24 1271.35 1542.15 1285.48 C 1540.41 1284.15 1541.16 1285 1540.58 1282.22 C 1542.25 1252.85 1525.41 1236.49 1496.11 1240.42 C 1500.9 1231.04 1506.77 1216.2 1511.15 1206.19 C 1521.29 1183.37 1531.54 1160.6 1541.92 1137.89 C 1549.51 1121.24 1556.94 1101.37 1567.96 1086.61 C 1570.63 1083.04 1577.39 1079.7 1579.66 1075.62 L 1578.27 1074.51 z"/>
<path transform="translate(0,0)" fill="rgb(243,189,106)" d="M 1658.99 1128.24 C 1679.36 1127.45 1698.57 1139.97 1704.08 1159.95 C 1702.63 1166.71 1697.82 1183.44 1695.08 1188.89 C 1686.58 1205.83 1616.25 1348.87 1609.55 1351.62 C 1622.87 1322.46 1625.6 1279.41 1581.8 1280.85 C 1584.49 1266.86 1605.56 1230.61 1612.35 1215.57 C 1622.83 1192.35 1634.38 1167.22 1646.48 1144.86 C 1651.04 1136.44 1654.94 1135.46 1662.13 1130.76 L 1662.26 1129.43 L 1658.99 1128.24 z"/>
<path transform="translate(0,0)" fill="rgb(243,189,106)" d="M 1725.24 1196.59 C 1746.37 1194.09 1759.9 1204.54 1766.46 1224.25 C 1766.34 1230.41 1764.91 1235.05 1763.1 1240.78 C 1757.39 1258.78 1687.57 1389.8 1677.63 1390.68 C 1686.45 1375.04 1700.72 1351.21 1692.55 1333.51 C 1683.16 1313.18 1669.34 1310.88 1651.1 1319.13 L 1649.47 1318.61 C 1655.01 1310.51 1659.33 1300.13 1664.2 1291.59 C 1678.82 1265.97 1692.97 1231.39 1708.18 1206.84 C 1713.72 1199.73 1716.84 1199.07 1725.24 1196.59 z"/>
<path transform="translate(0,0)" fill="rgb(252,225,170)" d="M 1725.24 1196.59 C 1729.4 1196.72 1730.67 1196.04 1733.64 1197.91 C 1730.14 1200.83 1714.97 1205.65 1709.84 1207.45 L 1708.18 1206.84 C 1713.72 1199.73 1716.84 1199.07 1725.24 1196.59 z"/>
<path transform="translate(0,0)" fill="rgb(185,89,96)" d="M 1457.17 1112.11 C 1475.1 1108.82 1501.68 1103.54 1511.73 1123.77 C 1510.27 1131.73 1509.6 1134.47 1505.5 1141.83 L 1500.66 1147.05 C 1495.83 1151.3 1483.77 1160.47 1481.4 1165.15 C 1477.17 1166.47 1476.91 1166.49 1473.5 1169.18 C 1473.02 1169.32 1472.54 1169.46 1472.05 1169.6 C 1441.76 1182.03 1394.48 1212.07 1371.77 1172.69 C 1368.83 1164.76 1369.37 1160.77 1368.2 1152.57 L 1367.21 1151.43 C 1368.7 1149.08 1368.43 1150.08 1368.65 1147.41 C 1366.84 1146.16 1366.37 1145.97 1364.41 1144.97 C 1380.39 1138.67 1394.66 1129.67 1412.17 1124.72 C 1419.82 1122.55 1426.99 1120.54 1430.24 1113.69 C 1432.92 1114.86 1434.86 1115.78 1437.7 1116.59 C 1442.46 1115.99 1452.13 1113.35 1457.17 1112.11 z"/>
<path transform="translate(0,0)" fill="rgb(224,124,144)" d="M 1481.81 1117.07 C 1506.85 1114.34 1510.14 1128.09 1493.07 1144.01 C 1469.21 1166.26 1433.86 1183.36 1401.04 1184.95 C 1381.19 1185.92 1365.6 1157.31 1383.18 1145.15 C 1390.15 1140.33 1408.67 1132.96 1417.07 1131.65 C 1436.62 1125.03 1461.33 1117.18 1481.81 1117.07 z"/>
<path transform="translate(0,0)" fill="rgb(247,178,195)" d="M 1417.07 1131.65 C 1436.62 1125.03 1461.33 1117.18 1481.81 1117.07 C 1480.56 1119.64 1479.94 1120.19 1477.02 1121.43 C 1449.42 1133.15 1421.65 1144.84 1393.74 1155.82 C 1391.42 1156.73 1388.61 1157.36 1386.15 1157.76 L 1384.41 1156.85 C 1386.12 1146.37 1409.53 1138.26 1417.07 1131.65 z"/>
<path transform="translate(0,0)" fill="rgb(224,124,144)" d="M 1467.25 1283.04 C 1477.17 1265.22 1498.22 1235.58 1520.91 1250.4 C 1550.95 1270.01 1520.12 1320.25 1511.38 1339.73 C 1504.22 1349.79 1484.56 1376.03 1473.62 1378.97 C 1421.26 1393.01 1461.3 1296.74 1467.25 1283.04 z"/>
<path transform="translate(0,0)" fill="rgb(247,178,195)" d="M 1496.3 1256.99 C 1499.36 1256.9 1499.25 1256.77 1502.08 1257.8 C 1502.66 1261.18 1494.71 1275.03 1492.73 1278.58 C 1478.34 1304.41 1467.43 1330.26 1456.23 1357.62 C 1454.98 1359.75 1455.86 1359.09 1453.75 1359.79 C 1452.33 1355.91 1452.95 1347.78 1453.65 1343.7 C 1458.18 1317.11 1474.31 1273.53 1496.3 1256.99 z"/>
<path transform="translate(0,0)" fill="rgb(185,89,96)" d="M 1642.74 1314.84 L 1644.04 1315.45 C 1641.5 1321.59 1632.48 1338.92 1628.84 1344.87 C 1631.32 1346.27 1630.45 1345.3 1631.62 1347.82 C 1635.61 1344.3 1636.12 1341.4 1637.5 1336.29 L 1636.89 1336.91 C 1638.86 1332.39 1644.85 1320.19 1648.6 1317.94 L 1649.47 1318.61 L 1651.1 1319.13 C 1669.34 1310.88 1683.16 1313.18 1692.55 1333.51 C 1700.72 1351.21 1686.45 1375.04 1677.63 1390.68 C 1674.32 1394.76 1672.16 1398.31 1669.36 1402.71 C 1653.48 1420.59 1641.03 1439.81 1614.59 1437.35 C 1594.09 1424 1605.31 1396.12 1611.32 1377.59 C 1613.49 1373.46 1614.19 1369.91 1614.45 1365.35 C 1625.15 1348.92 1633.69 1332.21 1642.74 1314.84 z"/>
<path transform="translate(0,0)" fill="rgb(224,124,144)" d="M 1662.38 1321.09 C 1684.84 1319.62 1691.46 1338.05 1685.49 1356.97 C 1676.54 1385.39 1657.53 1412.86 1632.36 1429.23 C 1585.25 1451.61 1621.13 1340.37 1662.38 1321.09 z"/>
<path transform="translate(0,0)" fill="rgb(247,178,195)" d="M 1660.98 1329.7 C 1663.34 1330.12 1662.59 1329.79 1664.44 1331.2 C 1663.48 1334.31 1644.48 1362.78 1640.74 1369.17 C 1632.78 1382.76 1624.64 1397.37 1616.8 1411.13 L 1615.84 1412.26 C 1609.89 1399.61 1644.49 1338.27 1660.98 1329.7 z"/>
<path transform="translate(0,0)" fill="rgb(224,124,144)" d="M 1452.51 1217.07 C 1468.52 1246.59 1444.31 1289.41 1427.29 1314.2 C 1420.35 1324.31 1403.24 1340.77 1389.02 1335.56 C 1366.63 1324.99 1383.69 1266.26 1388.92 1251.5 C 1392.73 1249.59 1394.02 1249.37 1398.23 1248.31 L 1412.71 1242.55 C 1430.17 1234.01 1437.72 1229.46 1452.51 1217.07 z"/>
<path transform="translate(0,0)" fill="rgb(247,178,195)" d="M 1412.71 1242.55 L 1413.26 1243.98 C 1406.49 1259.69 1400.36 1275.67 1394.89 1291.87 C 1393.47 1296.01 1387.78 1314.61 1386.19 1317.19 L 1385.08 1317.01 C 1379.83 1301.9 1390.07 1265.22 1397.63 1249.54 L 1398.23 1248.31 L 1412.71 1242.55 z"/>
<path transform="translate(0,0)" fill="rgb(252,225,170)" d="M 1368.2 1152.57 C 1369.37 1160.77 1368.83 1164.76 1371.77 1172.69 C 1361.43 1173.16 1346.47 1178.82 1336.41 1182.18 C 1315.77 1189.07 1298.24 1196.82 1291.95 1219.76 C 1282.5 1254.19 1277.13 1290.32 1269.72 1325.3 C 1268.3 1332 1267.67 1338.75 1267.52 1345.57 C 1267.51 1347.31 1266.74 1347.27 1265.2 1347.73 C 1258.16 1313.33 1267.61 1238.91 1279.85 1205.49 C 1292.1 1172.06 1337.43 1165.4 1368.2 1152.57 z"/>
<path transform="translate(0,0)" fill="rgb(243,189,106)" d="M 1486.02 1052.33 C 1502.63 1048.7 1516.79 1056.06 1527.14 1068.92 C 1525.28 1090.17 1520.42 1102.83 1513.38 1122.78 L 1511.73 1123.77 C 1501.68 1103.54 1475.1 1108.82 1457.17 1112.11 C 1461.12 1099.84 1477.91 1065.46 1485.46 1055.65 L 1486.36 1054.48 L 1486.02 1052.33 z"/>
<path transform="translate(0,0)" fill="rgb(252,225,170)" d="M 1470.25 1263.9 C 1470.69 1257.42 1526.91 1133.94 1533.51 1117.33 C 1535.01 1113.55 1544.23 1096.26 1547.63 1092.1 C 1556.08 1081.76 1565.12 1076.46 1578.27 1074.51 L 1579.66 1075.62 C 1577.39 1079.7 1570.63 1083.04 1567.96 1086.61 C 1556.94 1101.37 1549.51 1121.24 1541.92 1137.89 C 1531.54 1160.6 1521.29 1183.37 1511.15 1206.19 C 1506.77 1216.2 1500.9 1231.04 1496.11 1240.42 C 1482.99 1247.48 1478.6 1251.34 1470.25 1263.9 z"/>
<path transform="translate(0,0)" fill="rgb(252,225,170)" d="M 1658.99 1128.24 L 1662.26 1129.43 L 1662.13 1130.76 C 1654.94 1135.46 1651.04 1136.44 1646.48 1144.86 C 1634.38 1167.22 1622.83 1192.35 1612.35 1215.57 C 1605.56 1230.61 1584.49 1266.86 1581.8 1280.85 C 1570.13 1284.14 1564.29 1289.35 1555.88 1297.46 C 1571.46 1264.24 1587.23 1231.1 1603.18 1198.04 C 1608 1188.09 1613.07 1177.76 1617.88 1167.85 C 1628.47 1146.04 1633.47 1133.9 1658.99 1128.24 z"/>
<path transform="translate(0,0)" fill="rgb(219,145,90)" d="M 1704.08 1159.95 C 1714.77 1183.84 1693.75 1215.41 1683.71 1236.17 C 1670.92 1262.65 1655.89 1288.57 1642.74 1314.84 C 1633.69 1332.21 1625.15 1348.92 1614.45 1365.35 C 1607.24 1372.68 1603.46 1374.11 1594.28 1377.98 C 1597.96 1371.46 1603.54 1362.2 1606.38 1355.57 L 1609.55 1351.62 C 1616.25 1348.87 1686.58 1205.83 1695.08 1188.89 C 1697.82 1183.44 1702.63 1166.71 1704.08 1159.95 z"/>
<path transform="translate(0,0)" fill="rgb(219,145,90)" d="M 1623.18 1103.9 C 1634.53 1130.15 1616.55 1153.01 1605.29 1175.73 C 1590.64 1205.39 1576.3 1235.2 1562.27 1265.15 C 1558.29 1273.82 1550.43 1289.6 1547.42 1297.79 C 1537.95 1315.1 1539.9 1326.31 1521.31 1337 C 1530.58 1318.52 1538.08 1303.31 1540.58 1282.22 C 1541.16 1285 1540.41 1284.15 1542.15 1285.48 C 1550.24 1271.35 1557.83 1252.16 1565.33 1237.19 C 1577.71 1212.49 1589.79 1187.41 1601.07 1162.19 C 1610.26 1141.65 1618.95 1126.14 1623.18 1103.9 z"/>
<path transform="translate(0,0)" fill="rgb(185,89,96)" d="M 1452.51 1217.07 C 1456.57 1214.15 1457.56 1215.97 1461.72 1218.03 C 1462.94 1221.7 1464.23 1225.37 1465.19 1229.12 C 1465.03 1240.7 1464.79 1245.55 1462.97 1256.93 C 1462.12 1269.05 1445.73 1293.16 1446.81 1301.49 C 1449.89 1325.28 1427.22 1381.02 1462.22 1386.3 C 1485.29 1389.79 1503.77 1350.41 1515.7 1346.19 L 1516.01 1346.86 C 1507.44 1352.95 1498.89 1368.66 1489.69 1375.78 C 1451.17 1405.61 1436.21 1376 1442.49 1338.01 C 1444.17 1327.8 1445.56 1308.47 1447 1296.94 C 1436.28 1312.28 1422.43 1334.37 1404.53 1341.53 C 1387.21 1348.46 1377.63 1335.9 1372.03 1321.34 C 1371.77 1315.09 1371.73 1313.83 1370.04 1307.77 C 1371.66 1292.76 1373.1 1278.49 1376.68 1263.75 L 1379.25 1255.22 C 1381.73 1253.13 1385.66 1252.41 1388.92 1251.5 C 1383.69 1266.26 1366.63 1324.99 1389.02 1335.56 C 1403.24 1340.77 1420.35 1324.31 1427.29 1314.2 C 1444.31 1289.41 1468.52 1246.59 1452.51 1217.07 z"/>
<path transform="translate(0,0)" fill="rgb(219,145,90)" d="M 1766.46 1224.25 C 1767.4 1232.42 1768.04 1244.19 1765.71 1252.18 C 1753.71 1293.41 1709.73 1385.84 1669.36 1402.71 C 1672.16 1398.31 1674.32 1394.76 1677.63 1390.68 C 1687.57 1389.8 1757.39 1258.78 1763.1 1240.78 C 1764.91 1235.05 1766.34 1230.41 1766.46 1224.25 z"/>
<path transform="translate(0,0)" fill="rgb(179,99,69)" d="M 1496.11 1240.42 C 1525.41 1236.49 1542.25 1252.85 1540.58 1282.22 C 1538.08 1303.31 1530.58 1318.52 1521.31 1337 C 1539.9 1326.31 1537.95 1315.1 1547.42 1297.79 L 1548.28 1299.26 C 1545.59 1306.62 1543.46 1312.53 1539.27 1319.15 C 1538.1 1320.99 1538.47 1329.4 1537.33 1331.63 C 1535.66 1335.84 1530.6 1341.53 1529.28 1345.6 C 1523.44 1363.5 1514.54 1389.82 1522.14 1408.22 C 1527.48 1421.15 1539.7 1423.55 1551.05 1417.02 C 1559.38 1412.21 1565.85 1407.42 1572.9 1400.82 C 1579.84 1392.71 1589.33 1381.11 1595.37 1372.49 C 1598.67 1367.78 1601.4 1360.92 1605.87 1354.63 L 1606.38 1355.57 C 1603.54 1362.2 1597.96 1371.46 1594.28 1377.98 C 1603.46 1374.11 1607.24 1372.68 1614.45 1365.35 C 1614.19 1369.91 1613.49 1373.46 1611.32 1377.59 C 1601.9 1382.55 1597.84 1384.8 1587.31 1386.76 L 1573.1 1402.05 C 1564.38 1411.37 1547.1 1425.41 1533.87 1421.03 C 1504.11 1411.16 1523.17 1360.25 1529.26 1340.87 L 1516.01 1346.86 L 1515.7 1346.19 C 1515.11 1345.11 1514.79 1344.18 1514.33 1343.03 C 1528.98 1327.13 1546.31 1280.05 1535.28 1259.02 C 1527.36 1243.91 1506.17 1236.08 1491.16 1245 C 1483.1 1249.8 1459.58 1274.36 1467.25 1283.04 C 1461.3 1296.74 1421.26 1393.01 1473.62 1378.97 C 1484.56 1376.03 1504.22 1349.79 1511.38 1339.73 C 1510.83 1354.29 1457.77 1408.01 1447.19 1368.82 C 1442.12 1350.05 1450.9 1319.31 1457.96 1301.34 C 1459.98 1296.21 1461.94 1288.55 1464.37 1284.63 L 1463.59 1283.25 C 1457.51 1285.6 1458.1 1298.38 1448.96 1307.25 L 1447.84 1306.69 C 1450.64 1297.28 1464.76 1275.51 1470.25 1263.9 C 1478.6 1251.34 1482.99 1247.48 1496.11 1240.42 z"/>
<path transform="translate(0,0)" fill="rgb(252,225,170)" d="M 1437.7 1116.59 C 1447.38 1091.29 1458.43 1061.05 1486.02 1052.33 L 1486.36 1054.48 L 1485.46 1055.65 C 1477.91 1065.46 1461.12 1099.84 1457.17 1112.11 C 1452.13 1113.35 1442.46 1115.99 1437.7 1116.59 z"/>
<path transform="translate(0,0)" fill="rgb(243,189,106)" d="M 1500.66 1147.05 C 1500.04 1151.88 1493.61 1164.9 1491.22 1170.18 L 1473.76 1210.45 C 1472 1214.45 1467.34 1225.71 1465.19 1229.12 C 1464.23 1225.37 1462.94 1221.7 1461.72 1218.03 C 1461.11 1216.67 1458.99 1212.69 1459.41 1211.92 C 1468.46 1195.58 1478.79 1184.72 1481.4 1165.15 C 1483.77 1160.47 1495.83 1151.3 1500.66 1147.05 z"/>
<path transform="translate(0,0)" fill="rgb(219,145,90)" d="M 1491.22 1170.18 C 1494.32 1174.48 1495.52 1174.38 1498.47 1177.51 C 1493.22 1189.54 1468.06 1250.79 1462.97 1256.93 C 1464.79 1245.55 1465.03 1240.7 1465.19 1229.12 C 1467.34 1225.71 1472 1214.45 1473.76 1210.45 L 1491.22 1170.18 z"/>
<path transform="translate(0,0)" fill="rgb(219,145,90)" d="M 1527.14 1068.92 C 1537.52 1086.65 1535.17 1096.29 1526.8 1114.26 C 1522.31 1123.91 1517.5 1134.3 1513.23 1144.09 C 1510.63 1143.4 1508.08 1142.61 1505.5 1141.83 C 1509.6 1134.47 1510.27 1131.73 1511.73 1123.77 L 1513.38 1122.78 C 1520.42 1102.83 1525.28 1090.17 1527.14 1068.92 z"/>
<path transform="translate(0,0)" fill="rgb(211,134,91)" d="M 1505.5 1141.83 C 1508.08 1142.61 1510.63 1143.4 1513.23 1144.09 C 1508.38 1155.26 1503.47 1166.4 1498.47 1177.51 C 1495.52 1174.38 1494.32 1174.48 1491.22 1170.18 C 1493.61 1164.9 1500.04 1151.88 1500.66 1147.05 L 1505.5 1141.83 z"/>
<path transform="translate(0,0)" fill="rgb(224,124,144)" d="M 1582.43 1287.96 C 1606.35 1286.92 1615.43 1308.43 1610.58 1328.46 C 1603.88 1356.17 1576.37 1395.71 1553.06 1411.06 C 1528.65 1423.51 1522.29 1404.88 1525.46 1383.76 C 1530.02 1353.46 1542.76 1323.26 1563.37 1300.37 C 1569.17 1293.93 1574.56 1291.03 1582.43 1287.96 z"/>
<path transform="translate(0,0)" fill="rgb(247,178,195)" d="M 1576.52 1299.7 C 1579.2 1299.92 1579.05 1299.9 1581.5 1301.03 C 1582.41 1304.15 1574.53 1314.93 1571.97 1319.08 C 1557.2 1343.08 1543.93 1367.96 1532.22 1393.59 C 1531.53 1394.89 1532.04 1394.2 1530.37 1395.4 C 1525.38 1373.3 1554.62 1310.62 1576.52 1299.7 z"/>
</svg>